#!OML:ASF E:\acrobat2\Project_11_07_03\Capture day 1\Session 1\Acrobat.ASF
:FULLY-SPECIFIED
:DEGREES
633
root 9.34594 18.0951 26.5371 -173.105 -18.9536 -182.839
lowerback 4.65226 4.961 3.19769
upperback 4.23761 6.26824 -7.49353
thorax 3.0562 3.1778 -9.82189
lowerneck 6.20372 20.459 6.11688
upperneck 4.76716 27.6651 -9.06614
head 2.88179 13.8274 -3.25721
rclavicle -9.14409e-015 1.11319e-014
rhumerus -50.9294 -1.21443 -75.3204
rradius 57.8071
rwrist -11.1239
rhand -1.90407 -40.7753
rfingers 7.12502
rthumb 23.7654 -69.3257
lclavicle -9.14409e-015 1.11319e-014
lhumerus -31.8816 -49.7501 88.9252
lradius 80.9182
lwrist 14.1971
lhand -9.52354 -10.0839
lfingers 7.12502
lthumb 16.4424 19.2392
rfemur -38.5131 -12.1628 19.0489
rtibia 54.5601
rfoot 15.7716 -5.949
rtoes 4.53171
lfemur -11.1443 -3.42839 -21.6239
ltibia 35.9049
lfoot 4.61301 -10.1014
ltoes 15.4436
634
root 9.36125 18.1059 26.728 -172.912 -19.3449 -182.914
lowerback 4.5643 4.48069 2.7512
upperback 4.28919 5.6202 -7.24244
thorax 2.94968 2.82977 -9.28069
lowerneck 5.74521 20.7926 5.27507
upperneck 4.76747 28.0554 -9.0345
head 2.85655 13.9965 -3.07731
rclavicle -5.96354e-015 -2.22639e-014
rhumerus -50.6516 -0.516164 -74.9764
rradius 57.5799
rwrist -11.3234
rhand -1.75253 -40.9685
rfingers 7.12502
rthumb 23.9107 -69.4998
lclavicle -5.96354e-015 -2.22639e-014
lhumerus -31.7099 -48.6386 88.9072
lradius 80.8789
lwrist 14.1189
lhand -9.02762 -10.0882
lfingers 7.12502
lthumb 16.9199 19.1948
rfemur -38.915 -12.2535 18.9982
rtibia 53.8783
rfoot 15.7822 -5.88297
rtoes 4.35571
lfemur -11.295 -3.71486 -21.4701
ltibia 37.0151
lfoot 6.60677 -9.49235
ltoes 14.8978
635
root 9.34267 18.1225 26.8815 -173.365 -18.6216 -182.727
lowerback 4.54672 4.55737 2.81987
upperback 4.42723 5.72288 -7.16264
thorax 3.12286 2.88786 -9.22667
lowerneck 5.68785 20.9597 5.12793
upperneck 4.7382 28.272 -9.14168
head 2.87049 14.1 -3.07174
rclavicle 5.1684e-015 2.38542e-014
rhumerus -50.7275 -0.433793 -74.7277
rradius 57.4645
rwrist -11.6019
rhand -1.57327 -41.0491
rfingers 7.12502
rthumb 24.0826 -69.5579
lclavicle 5.1684e-015 2.38542e-014
lhumerus -31.7394 -48.2113 88.9889
lradius 80.8352
lwrist 14.211
lhand -9.62209 -9.98333
lfingers 7.12502
lthumb 16.3475 19.3477
rfemur -38.5438 -11.6283 18.9379
rtibia 53.0921
rfoot 15.7462 -5.41889
rtoes 2.8362
lfemur -10.5198 -3.28182 -21.3557
ltibia 38.0541
lfoot 8.37159 -8.75683
ltoes 15.3559
636
root 9.34143 18.1382 27.0546 -173.427 -18.3727 -182.64
lowerback 4.48834 4.54603 2.80913
upperback 4.39502 5.70883 -7.15807
thorax 3.117 2.87992 -9.21169
lowerneck 5.66789 21.0052 5.23985
upperneck 4.81898 28.3438 -9.19492
head 2.93508 14.1333 -3.08489
rclavicle -4.57205e-014 2.8625e-014
rhumerus -51.0298 -0.681123 -74.5034
rradius 57.514
rwrist -11.7263
rhand -1.43574 -41.0874
rfingers 7.12502
rthumb 24.2145 -69.5786
lclavicle -4.57205e-014 2.8625e-014
lhumerus -31.8828 -48.2098 89.0651
lradius 80.8703
lwrist 14.5468
lhand -9.95805 -9.88956
lfingers 7.12502
lthumb 16.024 19.4678
rfemur -38.6084 -11.1627 18.88
rtibia 52.299
rfoot 15.6017 -5.45142
rtoes 1.74325
lfemur -10.3053 -3.16439 -21.1924
ltibia 39.0649
lfoot 10.7314 -7.59765
ltoes 17.7241
637
root 9.34332 18.1495 27.2349 -173.295 -18.3302 -182.785
lowerback 4.36628 4.44283 2.56858
upperback 4.38073 5.56149 -7.16887
thorax 3.1175 2.79497 -9.07584
lowerneck 5.45224 21.0254 5.14621
upperneck 4.87194 28.369 -9.19786
head 2.97718 14.1369 -3.04471
rclavicle -5.40694e-014 3.81667e-014
rhumerus -51.3215 -0.780907 -74.2301
rradius 57.7481
rwrist -11.7079
rhand -0.861155 -41.7254
rfingers 7.12502
rthumb 24.7653 -70.1421
lclavicle -5.40694e-014 3.81667e-014
lhumerus -31.8426 -48.0436 89.0417
lradius 80.8752
lwrist 14.7212
lhand -9.48486 -9.78949
lfingers 7.12502
lthumb 16.4797 19.5306
rfemur -38.7509 -10.9224 18.5947
rtibia 51.4381
rfoot 15.5 -5.67508
rtoes 2.27794
lfemur -10.2435 -3.27382 -21.2426
ltibia 39.9655
lfoot 13.1847 -6.08064
ltoes 19.4528
638
root 9.34091 18.159 27.4128 -173.36 -18.0699 -182.855
lowerback 4.37387 4.4468 2.4972
upperback 4.40287 5.55444 -7.24147
thorax 3.13643 2.78658 -9.11456
lowerneck 5.34945 21.0239 5.22953
upperneck 4.89776 28.3754 -9.23806
head 3.02391 14.1377 -3.04942
rclavicle -3.97569e-016 -5.24792e-014
rhumerus -51.5309 -1.00285 -74.0506
rradius 57.878
rwrist -11.7467
rhand -0.252799 -42.4371
rfingers 7.12502
rthumb 25.3482 -70.7724
lclavicle -3.97569e-016 -5.24792e-014
lhumerus -31.756 -47.9366 88.9337
lradius 80.8161
lwrist 14.646
lhand -9.35709 -9.68572
lfingers 7.12502
lthumb 16.6027 19.6241
rfemur -38.6258 -10.5 18.3185
rtibia 50.4934
rfoot 15.3764 -5.71225
rtoes 2.65425
lfemur -9.98802 -3.24791 -21.2935
ltibia 40.8547
lfoot 15.426 -4.7704
ltoes 19.8344
639
root 9.33577 18.1698 27.588 -173.618 -17.4725 -182.664
lowerback 4.49682 4.59142 2.64354
upperback 4.41437 5.74575 -7.26247
thorax 3.13406 2.88716 -9.23068
lowerneck 5.30402 21.0403 5.28239
upperneck 4.97066 28.4009 -9.20892
head 3.06218 14.1477 -3.03433
rclavicle -3.57812e-015 6.36111e-015
rhumerus -51.5418 -1.402 -73.9205
rradius 57.7206
rwrist -11.9351
rhand -0.258726 -42.8983
rfingers 7.12502
rthumb 25.3425 -71.2344
lclavicle -3.57812e-015 6.36111e-015
lhumerus -31.7478 -47.9217 88.9174
lradius 80.7867
lwrist 14.5828
lhand -9.99944 -9.42028
lfingers 7.12502
lthumb 15.9842 19.9402
rfemur -38.3467 -9.67176 18.2824
rtibia 49.4139
rfoot 15.204 -5.55418
rtoes 1.6712
lfemur -9.60516 -2.90464 -21.1235
ltibia 41.7452
lfoot 17.5598 -3.64457
ltoes 21.0084
640
root 9.33884 18.178 27.7759 -173.806 -17.1375 -182.598
lowerback 4.74801 4.64193 2.60076
upperback 4.41479 5.80106 -7.24699
thorax 2.9975 2.90662 -9.20898
lowerneck 5.35803 21.0087 5.27673
upperneck 4.88547 28.3554 -9.23465
head 3.02318 14.1288 -3.05647
rclavicle 1.10922e-013 -6.67916e-014
rhumerus -51.5122 -1.67854 -73.7743
rradius 57.5326
rwrist -12.2661
rhand -0.178241 -43.6023
rfingers 7.12502
rthumb 25.4196 -71.9275
lclavicle 1.10922e-013 -6.67916e-014
lhumerus -31.757 -47.8969 88.9432
lradius 80.7861
lwrist 14.4767
lhand -9.6539 -9.58775
lfingers 7.12502
lthumb 16.3169 19.7458
rfemur -38.0704 -9.03822 18.134
rtibia 48.1806
rfoot 14.9166 -5.43499
rtoes 0.680973
lfemur -9.30581 -2.91247 -21.0368
ltibia 42.596
lfoot 19.7501 -1.88884
ltoes 23.5814
641
root 9.3521 18.1874 27.9792 -173.539 -17.1361 -182.54
lowerback 4.71581 4.48255 2.47071
upperback 4.2784 5.58686 -7.24175
thorax 2.8166 2.78864 -9.12969
lowerneck 5.33441 21.0759 5.2142
upperneck 4.84528 28.436 -9.16787
head 2.99776 14.1693 -3.02504
rclavicle -2.06736e-014 5.56597e-014
rhumerus -51.3458 -1.66083 -73.7393
rradius 57.3192
rwrist -12.4597
rhand -0.382309 -43.2899
rfingers 7.12502
rthumb 25.2241 -71.6428
lclavicle -2.06736e-014 5.56597e-014
lhumerus -31.7776 -47.6233 88.8391
lradius 80.7936
lwrist 14.3262
lhand -9.39093 -9.4295
lfingers 7.12502
lthumb 16.5701 19.8831
rfemur -38.245 -8.53273 18.0417
rtibia 46.8491
rfoot 14.5969 -5.60085
rtoes 0.0141265
lfemur -9.67843 -3.20499 -20.8565
ltibia 43.4875
lfoot 21.8337 0.245007
ltoes 25.9868
642
root 9.35685 18.2008 28.1641 -173.505 -16.4643 -182.301
lowerback 4.61276 4.53194 2.41242
upperback 4.20338 5.65551 -7.20854
thorax 2.79687 2.82045 -9.05291
lowerneck 5.40895 21.2145 5.2102
upperneck 4.71666 28.6182 -9.2523
head 2.97035 14.2653 -3.05164
rclavicle -5.1684e-014 3.65764e-014
rhumerus -51.204 -1.65184 -73.7279
rradius 57.2935
rwrist -12.508
rhand -1.22712 -42.0836
rfingers 7.12502
rthumb 24.4145 -70.548
lclavicle -5.1684e-014 3.65764e-014
lhumerus -31.7924 -47.1858 88.769
lradius 80.8023
lwrist 14.4088
lhand -9.60332 -9.17934
lfingers 7.12502
lthumb 16.3656 20.1502
rfemur -38.0504 -7.33613 18.0676
rtibia 45.3127
rfoot 14.2908 -5.8002
rtoes -1.39986
lfemur -9.69494 -2.84281 -20.5938
ltibia 44.205
lfoot 23.5106 1.98111
ltoes 26.4138
643
root 9.37191 18.211 28.3717 -173.189 -16.4762 -182.472
lowerback 4.58005 4.42477 2.00998
upperback 4.11392 5.49164 -7.2403
thorax 2.65163 2.71688 -8.85476
lowerneck 5.71747 21.2288 5.47126
upperneck 4.4059 28.6553 -9.6048
head 2.91909 14.3038 -3.2309
rclavicle -6.36111e-015 1.19271e-013
rhumerus -51.1527 -1.87938 -73.6424
rradius 57.4392
rwrist -12.574
rhand -1.75672 -41.5843
rfingers 7.12502
rthumb 23.9067 -70.1162
lclavicle -6.36111e-015 1.19271e-013
lhumerus -31.7265 -46.9488 88.7473
lradius 80.7576
lwrist 14.5017
lhand -9.92759 -9.22324
lfingers 7.12502
lthumb 16.0534 20.1317
rfemur -37.9133 -6.68766 17.7014
rtibia 43.6299
rfoot 13.8299 -6.15703
rtoes -3.38139
lfemur -10.0449 -3.24741 -20.7126
ltibia 44.8449
lfoot 25.197 3.66216
ltoes 25.3047
644
root 9.3483 18.23 28.5501 -173.358 -15.5132 -182.337
lowerback 4.5076 4.66984 2.11532
upperback 4.16508 5.81865 -7.28498
thorax 2.82046 2.88834 -8.95675
lowerneck 5.90539 21.2128 5.58113
upperneck 4.08027 28.6388 -9.85857
head 2.83612 14.3121 -3.35852
rclavicle 1.23644e-013 9.54166e-015
rhumerus -50.9302 -2.22352 -73.523
rradius 57.4094
rwrist -12.5722
rhand -1.84112 -41.612
rfingers 7.12502
rthumb 23.8258 -70.1545
lclavicle 1.23644e-013 9.54166e-015
lhumerus -31.5655 -46.8807 88.6549
lradius 80.6872
lwrist 14.3525
lhand -9.10628 -9.34399
lfingers 7.12502
lthumb 16.8441 19.9454
rfemur -37.16 -5.63327 17.5626
rtibia 41.6551
rfoot 13.3787 -6.01994
rtoes -4.1207
lfemur -9.58301 -2.96714 -20.8137
ltibia 45.1639
lfoot 26.3935 5.71742
ltoes 25.9323
645
root 9.34346 18.2412 28.7536 -173.316 -15.1507 -182.144
lowerback 4.5571 4.69469 2.27333
upperback 4.14328 5.85772 -7.28249
thorax 2.79441 2.91346 -9.05009
lowerneck 5.85448 21.2455 5.44765
upperneck 3.9751 28.6697 -9.84975
head 2.78781 14.3284 -3.34081
rclavicle -3.22031e-014 4.92986e-014
rhumerus -50.6182 -2.57812 -73.3803
rradius 57.2215
rwrist -12.5287
rhand -1.76687 -41.351
rfingers 7.12502
rthumb 23.897 -69.8841
lclavicle -3.22031e-014 4.92986e-014
lhumerus -31.3899 -46.812 88.5685
lradius 80.6257
lwrist 14.3254
lhand -9.23018 -9.38008
lfingers 7.12502
lthumb 16.7249 19.9195
rfemur -36.547 -4.75391 17.4751
rtibia 39.4648
rfoot 12.8209 -6.56257
rtoes -3.0416
lfemur -9.57231 -3.19011 -20.7034
ltibia 45.3091
lfoot 27.5352 8.02803
ltoes 28.5089
